<?xml version="1.0" standalone="no"?>
<!DOCTYPE svg PUBLIC "-//W3C//DTD SVG 20010904//EN"
 "http://www.w3.org/TR/2001/REC-SVG-20010904/DTD/svg10.dtd">
<svg version="1.0" xmlns="http://www.w3.org/2000/svg"
 width="240.000000pt" height="240.000000pt" viewBox="0 0 240.000000 240.000000"
 preserveAspectRatio="xMidYMid meet">
<metadata>
Created by potrace 1.11, written by Peter Selinger 2001-2013
</metadata>
<g transform="translate(0.000000,240.000000) scale(0.100000,-0.100000)"
fill="#000000" stroke="none">
<path d="M150 2288 c2 -157 24 -246 87 -346 18 -29 33 -56 33 -60 0 -4 -10
-18 -23 -32 -168 -183 -220 -498 -120 -727 9 -21 17 -40 18 -43 1 -3 16 -36
33 -74 18 -38 32 -70 32 -72 0 -2 11 -27 24 -56 32 -71 46 -103 172 -388 144
-328 193 -390 367 -460 41 -16 83 -24 146 -26 90 -3 135 6 230 46 l51 23 63
-28 c80 -35 87 -36 184 -41 110 -4 210 25 293 85 85 63 113 97 165 206 30 61
55 117 57 125 2 8 5 17 9 20 3 3 16 30 28 60 13 30 34 78 46 105 49 110 80
180 81 185 0 3 11 28 24 55 13 28 24 52 25 55 1 3 12 28 24 55 13 28 38 84 55
125 28 65 37 89 52 145 26 100 21 254 -12 365 -18 61 -78 181 -109 219 -95
116 -205 201 -314 242 -117 44 -277 57 -406 34 l-40 -7 0 59 c1 69 -15 130
-44 172 -56 79 -188 113 -271 71 -24 -12 -50 -28 -57 -36 -11 -11 -25 -9 -81
12 -37 14 -76 29 -87 32 -11 3 -181 7 -378 9 l-358 4 1 -113z"/>
</g>
</svg>
